<svg xmlns="http://www.w3.org/2000/svg" xmlns:xlink="http://www.w3.org/1999/xlink" width="1123" height="794" stroke="#000" stroke-linecap="round" stroke-linejoin="round" fill="#fff" fill-rule="evenodd"><style><![CDATA[.B{fill-rule:nonzero}.C{fill:#000}.D{stroke:none}.E{stroke:#394d54}.F{stroke-linejoin:miter}.G{stroke-linecap:butt}.H{stroke-width:.2881}.I{fill:#00acd3}.J{fill:#20c2ef}.K{fill:#394d54}.L{fill:#d4edf1}.M{fill:#a41e11}.N{fill:#d82c20}.O{stroke-width:1.9389}.P{stroke-width:.6278}]]></style><g class="B D"><path d="M321.2203 551.8528c-2.7698-2.3519-5.7216-4.6031-7.7398-7.7782-4.248-5.5976-7.5157-12.0957-9.7533-18.8912-1.3538-4.43-1.8144-9.1776-3.5572-13.4363-1.8204-3.0911.3145-6.4729 3.4513-7.4557 1.3958-.2906 3.8528-1.7136.887-.6955-2.6451 2.105-2.9143-1.9118-.1898-2.1839 1.861-.2688 2.5458-1.9102 1.9077-3.3885-1.9978-1.4078 4.8424-2.95 1.4004-5.05-3.5836-4.1747 5.0138-4.9794 2.8944-.2352-.5072 3.6455 6.0095-.672 4.5124 3.5414 1.5374 2.0226 5.7576.462 5.6486 3.2977 2.2406.168 3.0077 2.184 5.1069 2.3553 2.1784 1.0618 6.1277 1.8984 6.8668 4.5477-2.1785 1.848-7.1625-3.8135-7.4037 1.2969.6536 7.5531.4871 15.333 3.0452 22.5233 1.2108 4.3544 4.1453 7.7816 6.7953 11.1717 2.5365 3.3213 5.9706 5.6615 9.4732 7.6271 3.0718 1.5623 6.3798 2.5989 9.7285 3.2507 1.3569-1.1206 3.7532-5.2885 5.8711-3.5313.1026 1.9773-4.2015 4.1293-.2024 3.911 2.334-.7661 3.9788 1.9605 5.9131-.499 1.7815 2.2797 7.4067-1.4548 6.1402 3.2037-1.7149 1.176-4.2013.4704-5.9334 2.1167-2.832-1.5119-5.0852 1.3642-8.2206.9996-3.4809.672-7.0239.9442-10.5531.9492-5.7917-.4939-11.7045-.7022-17.2129-2.8778-3.1045-.9744-6.131-2.8828-8.8604-4.7912zm4.8908 2.2898c3.0295 1.4112 5.9938 2.9063 9.3144 3.3549 5.2688.7896 10.7104 2.0092 15.9962.8988-2.3932-1.1659-4.8673.4536-7.2512-.8333-2.8585.6636-5.913-.168-8.8351-.5813-3.3052-1.5892-6.8731-2.6812-9.9682-4.7459-3.8699-1.5254 1.9996 1.9572 3.0453 2.2394 2.418 1.4818-2.6454-.7593-3.3768-1.3775-2.026-1.2264-2.2827-.9711-.2021.2738.42.2654.8339.5426 1.2727.7694zm-5.7669-4.4015c2.9379 1.176-.0124-2.2293-1.3568-2.016-.596-1.1171-2.2781-1.8227-1.0922-2.4191-2.132.7997-2.2362-3.0239-3.2366-2.4914-2.2565-.7694-.8776-3.4943-3.5682-5.1709-.2459-1.764-2.6718-3.2927-3.4434-5.9538-.3425-1.344-2.7419-5.2751-1.2683-1.6346 1.2543 3.5044 3.4622 6.5065 5.2999 9.5036 1.4253 2.8559 3.1121 5.8395 5.7107 7.6186.8762.9072 1.721 2.2965 2.9565 2.5821zm-8.4585-10.0294c.101-.4788.5368 1.0366 0 0zm11.9768 11.4355c.6504-.3141-.9337-.3964 0 0zm1.5934.6283c-.1648-.8668-.7283.504 0 0zm1.9964.8988c.9336-.9744-1.4627-.6165 0 0zm3.4203 2.058c.5756-.9207-1.8472-.3461 0 0zm-6.5667-4.9425c1.4736-1.0298-1.9061-.0168 0 0zm1.497.8064c-.0421-.5426-.5322.2436 0 0zm7.4799 5.0399c1.2028.8198 7.0242 1.7975 3.3797.336-.6115.1377-6.7579-1.8782-3.3797-.336zm-11.8727-9.9857c-.1167-.5443-1.8671-.6048 0 0zm3.4809 2.1923c.9072-.6837-1.8672-.5275 0 0zm2.9301 1.9387c1.3008-.5292-2.1083-.5308 0 0zm-7.8301-5.7958c1.4113 1.1692 5.6922.1679 2.1785-.6972-1.6059-.924-5.2284-1.5574-2.7589.5577l.5975.1395zm9.8142 6.4678c.5882-1.0802-2.4665-.6182 0 0zm-2.9816-2.5586c3.4498 1.0517-2.902-2.357-.8511-.3897l.4543.2234.3968.168zm5.9784 3.7295c3.2678.0336-2.9518-.504 0 0zm-14.0667-9.6799c-.1276-.672-.8061.0538 0 0zm19.5953 13.0264c.0872-1.186-1.0659.8837 0 0zm-14.0043-9.3406c-.1993-.6249-1.0209-.0268 0 0zm-5.2674-4.0991c1.8751-.1226-2.5675-.8904 0 0zm-6.2242-4.3544c-.2334-.9744-2.0227-1.7472 0 0zm16.3806 11.2221c-.3423-.4233-.1618.0924 0 0zm10.1952 6.7535c-.0311-.6468-.5553.2436 0 0zm-11.0946-7.7615c.1838-.8332-1.5996-.252 0 0zm-7.5935-5.1978c1.3957-.1612-2.2377-1.018 0 0zm12.8483 8.6182c2.1753-.9307-2.1209-.4536 0 0zm-6.6817-4.8971c2.4897.3478-2.983-1.8429-.5509-.1965l.5509.1965zm8.7108 5.7825c2.342-1.5086 1.5685 3.538 3.971.4267 2.3683-1.8681-2.0462 2.3099.8714.3326 2.1131-1.5254 5.2314.7224 7.2014 1.4549 1.4005-.074 2.7947 1.3221 4.248.4704 2.7963-.8131-5.4695-1.2063-3.3033-2.6477-2.5583.8064-4.4505-.9575-5.7078-2.7282-2.8707-.7157-6.1884-2.3016-7.6215-5.0433-.5851-1.0281.8434.1462-.504-1.5371-1.7117-1.6598-2.5926-3.528-3.7534-5.5641-1.4004-.7979-1.5498-3.1499-1.6897-.0772.0108-1.9387-1.6745-3.2424-2.0853-2.7014-.0077-1.848 1.8051-.9307.5369-2.3117-.2723-1.9353-1.1717-3.9512-1.4409-6.1352-.4202-1.0516-.059-3.3095-1.4316-.924-.4979 2.52-.1649-3.0944.6131-1.2431 1.0209-1.8883-.3672-1.68-.4231-1.4045.6643-1.5926.4201-3.8555-.1743-2.9903.3548-1.69.5601-6.2159-.5292-5.4145.6613-1.7673 1.2526-8.0857-1.6183-5.6783-1.1622.0168-3.1743.4536-4.1266.966 2.9829 1.7757-.3003.6417-1.5172.3595-.1554 1.643-1.3614.9341-2.863.9492 2.4026.336-1.1703 2.6543-2.5458 1.7471-1.7895.924 1.556 3.2256.0358 3.9412.1869 1.0718-2.7387-.3864-2.5115 2.0933-1.7364-.7896-.2381 2.9399.6318 1.6799 2.9534.8635 2.0788 2.8308 2.1537 4.7006-.467 1.0886-2.3763-2.5603-.4201-2.3906-1.5562-2.688-1.7055-.9778-2.9878.2788-.3112.0908 3.2677 1.7875 1.0301 2.6258 1.9684.3293 2.026 2.189 2.4274 3.365 1.1826 1.3305.9399-1.47 2.3559.131-.8961-1.4279-4.746-4.0319-1.6463-3.1852-.0156-1.433-.5602-2.5905.389-2.5619.9414-1.8379-.9865 4.5359 1.1359 2.1974.5867-.2772.7314-1.8396 1.7895.1478 1.5311 1.6296.5539 2.8055-1.6074 1.3154.386 1.4179 2.8911 1.9219 2.4196 4.1378.498 1.9487 1.1982 1.2297 1.8051 1.1188.4777 1.8916.7469.5006.7704-.4032 2.1847.504 1.6726 1.8984 2.3572 2.856 1.5063.7324-2.1551-4.9727.4297-1.7136 2.7198 2.6543 1.0206 3.7581-1.4209 3.333 1.5452-.1344 2.0416 2.2545 3.9742 2.1706 1.7614.9071 2.9565 4.3813-.0825 2.9348-1.0534-1.0079-4.7833-2.2914-1.7365-.341 2.8102 1.4078 5.0462 2.2478 7.7584 4.0319 1.9404 1.512 2.7793 3.1919 3.5136 3.5481-1.6339.84-4.9171-.672-2.4771-1.134-1.522-.299-3.2336-1.1306-1.7772.9156 1.2404 1.1189 4.3912.9996 4.9576 1.1256-.4792 1.139-1.3007 1.2297.0187 1.3171-1.4719.8484.4732.9794.6224 1.4615zm-3.011-9.1827c-.8961-1.013-1.128-2.9063-.1603-1.26.4981.2184 1.5919 3.0979.1603 1.26zm9.8095 6.7266c.56-.0403.0154.4586 0 0zm-11.2239-9.2062c-.0358-1.512.3222 1.181 0 0zm-.9741-1.4145c-1.128-2.352 1.4206.6652 0 0zm-11.8151-8.803c.6628-.1916.3112 1.223 0 0zm9.4047 5.5018c.4048-1.6497.4777 1.3826 0 0zm-6.6443-4.9895c-.4668-.9105.9803.84 0 0zm5.6998 1.9723c-1.0674-2.5821.7578-1.4112.2382.4234l-.2382-.4234zm-9.8311-7.0777c-.4777-.8483-1.2665-3.333-1.0115-4.0924.2288 1.2365 2.4337 5.3205 1.0801 1.6918-1.494-3.024 1.7893.9861 2.1254 1.7471.1556.756-.9227-.2066-.1914 1.5624-1.3351-2.016-.7872 1.1121-2.0026-.9072zm-3.0373-2.2612c.1243-1.9706.6939 1.3507 0 0zm1.3661.509c.6535-1.4867 1.0892 2.0731 0 0zm-3.288-2.745c-1.1312-1.2146-1.9497-2.352.0545-.756.7704.0336-1.7148-2.5435.1867-.8181 1.998.3931.9866 3.538-.2396 1.5724zm1.7117-.0504c.6567-.7056.3486.6921 0 0zm1.0643.3662c-.9958-2.0159 1.2091.845 0 0zm-2.1131-2.1789c-3.2879-3.1617 4.1313 1.6514.5369.5846l-.5369-.5846zm9.4219 5.9084c-1.4238-.9206-.3781-6.4846.1089-2.6795 1.4005-.4838-.0778 1.9655.9539 1.942-.1617 1.5456-.6224 2.1-1.0611.7392zm3.4591 2.2176c.1556-1.68.2926 1.1474 0 0zm-.6224-.6468c.1556-.7157.0156.8433 0 0zm-11.6704-8.5258c-2.1131-3.1466 6.1402 3.1835 1.3538.798-.498-.1428-1.0893-.1932-1.3538-.798zm6.7113 3.8404c-.2023-2.6493.4467.4368 0 0zm5.0945 3.5279c.3937-1.5086.0311.9979 0 0zm-11.4806-8.5712c1.2558-.2906 5.2019 2.3789 1.5779.7627-.4046-.4821-1.2449-.262-1.5779-.7627zm10.7835 5.8009c.1338-2.7097.75-1.6178.0062.3898l-.0062-.3898zm-9.8467-6.745c.5135-.8098-1.36-3.6623.2692-1.008.7033.6048 2.0228 1.008.8605 1.265 1.8672 1.764-.4669.4771-1.1282-.2419zm9.3146 5.8799c.3531-3.0878.3111 1.8076 0 0zm-10.3836-8.7493c.3921-.1814.2069.5628 0 0zm2.4305 1.5624c.6255-1.4179 1.1515 1.5791 0 0zm6.8529 4.1159c-.0063-.5426.1291.7896 0 0zm-.3968-.9475c-.9335-2.5334.8871 1.3406 0 0zm-.5835-1.68c-.1588-1.0466.5446 1.3154 0 0zm.9337-1.6682c-.6537-1.2431.8246-5.4716.9895-2.8475-.6893 2.0445-.1991 3.1869.2801.4452.887-2.1571-.1914 4.2604-1.2696 2.4023zm.9771-6.2914c.2847-.378.0622.4536 0 0zm-1.6339 34.7029c-.3859-.3645.0498.2302 0 0zm3.3611 1.8346c1.8673.5039 1.8612-.3125.1558-.5611-.9072-.9123-3.7767-1.8816-1.2092-.1126.1556.4653.7064.4536 1.0378.672zm-6.635-4.7594c1.027.8299 3.8777 2.3486 1.4674.336.8138-1.0214-1.5561-1.5623-.7703-2.2478-1.9994-1.3221-1.5777-1.2028-.1758-1.1759-2.4026-1.176.3471-1.0719.2178-1.6682-.9258-.1966-4.6026-1.764-2.4397.1276-2.1987-1.2095-.5246.4503-1.189.2772-2.2485-.6619 2.0012 1.848-.3577 1.2264 1.2882 1.1021 3.47 2.8257.5446 1.1659-.3844.5997 2.0943 1.5069 2.7027 1.9622zm3.5136 2.1806c4.2729 1.4851-2.096-1.8177 0 0zm17.991 11.7665c.0562-.9156-.5833.7812 0 0zm1.8673.84c.9865-1.0299.0405 1.643 1.6339-.252.0155-1.3574-.0467-2.1588-1.83-.5091-.4917.2957-.7111 1.5456.1961.7627zm-29.3252-19.8639c-.3036-1.2852-2.1226-1.2768 0 0zm1.9731 1.3944c-.7315-1.3104-2.6144-1.1878 0 0zm11.2345 7.3145c1.0972 1.0517 5.0371.7728 1.332.131-.5476-.8735-3.4825-.6652-1.332-.131zM341.5003 553.6c1.6885-1.512-1.6338.682 0 0zm3.5106 2.6039c.0108-.4905-.7284.215 0 0zm.0062-.672c1.8672-2.1369-1.8098.126 0 0zm-37.0233-25.3288c-1.5934-2.4527-.9896-3.5564-2.527-5.5438-.2925-1.5338-2.6359-5.0097-1.2137-1.344 1.3041 2.1554 1.6899 5.4901 3.7392 6.8878zm36.4367 24.635c3.4232-2.399-1.4115-1.0449 0 0zm2.6249 1.1088c1.7227-1.596-1.0892-.3327 0 0zm-34.7886-24.0856c.4917-.7896-1.2727-.1008 0 0zm34.2409 23.3094c1.6681-1.1759-.3844-.9827-.3019.1059l.3019-.1059zm-22.6281-15.38c-.0576-.7862-.8821.0672 0 0zm1.3975.8685c-.4452-.971-.6848.168 0 0zm23.9054 15.3146c2.1365-1.68-1.2913-.336-.4465.3158l.4465-.3158zm-.8183-.4268c1.7426-1.5741-1.8361.6972 0 0zm4.181 3.0038c1.1672-.8433-1.4207-.2721 0 0zm-39.2077-27.2439c1.5652.378 6.2583 4.1629 3.4901.2621-1.4003-.4536-.568-4.1949-2.0136-3.5347.971 1.7522.7983 2.4948-1.2402 1.3944-2.5597-1.3507-1.4393.6669-.9367 1.2264-.6847.1679.9025.6383.7004.6719zm-7.1345-6.0815c.2799-1.2532-2.5831-6.8878-1.3539-2.8223.4434.8517.3969 2.4645 1.3539 2.8223zm13.0956 8.7358c-.8092-.7274-.0388-.1041 0 0zm1.9856.499c0-1.344-2.1786-.5376 0 0zm17.2098 11.7127c-.3112-.9072-1.2977-.0202 0 0zm.8247.6518c-.1245-.5074-.4775.1008 0 0zm6.8202 4.6249c.6535-.504-.8185-.0672 0 0zm-36.3726-25.2414c1.8765-.7845-2.0104-.5594 0 0zm27.231 18.5098c-.0218-1.3104-1.1984.3276 0 0zm-27.9578-20.3779c1.2044-.4368-1.1155-.289 0 0zm3.498 1.8479c-.0201-.43-.3686.1647 0 0zm42.6576 28.2352c1.5499-.3394 5.0836.8517 5.6532-.4436-1.8671-.0504-6.5106-1.4346-6.7298.3276l.4122.0706.6644.0437zm-41.5466-27.9513c.028-1.3439-.96-.0504 0 0zm-9.1805-6.8878c-.4172-2.5317-1.5873-.383 0 0zm2.1785.5947c.028-.8131-2.0231-.7325 0 0zm1.2524.6653c-.3625-.336-.2799.3981 0 0zm7.8892 5.4599c.3735-.3696-.8792-.2722 0 0zm-8.7372-6.9585c-.2132-1.9117-2.5426-.2855 0 0zm-4.5124-3.1516c-.0624-.8819-.439.3327 0 0zm.6535-.5443c-.1089-1.0466-.5759.1311 0 0zm3.6955 2.3805c1.5638-.6619-2.8474-1.3708-.319-.1243l.319.1243zm49.4824 32.9895c1.0007-1.008-1.2697-.3058 0 0zm5.9753 3.3599c.4014-1.2768-1.0113.168 0 0zm-55.0843-38.4376c.165-1.2381-1.2401.247 0 0zm-5.2593-3.8051c-.2802-1.7471-.2429-4.8164 2.4585-3.7799-3.6053.7728 2.4976 4.8383 1.7116 1.6296 1.5172.0806 2.9674-.9677 2.1707.6216 2.9876-.336 5.0604-3.1533 7.9468-2.7602 2.2485-.3226 4.707-.5662 7.1299-1.5456 1.9916-.1545 3.9102-2.4695 2.8009-3.8437-2.717-.2487-5.5614.1176-8.5631.7644-3.3268.7459-6.3487 2.1637-9.7066 2.7719-3.274.4754.6566 1.307-.2801 1.512-1.7068.6383 2.0229 1.0701-.221 1.7471-1.3942-.2856-2.8475-.803-2.25-2.3906-3.1339.4419-5.8897 1.8446-3.4124 5.2886l.1836.0016zm7.5547-4.1528c.7312-2.9232 3.9366 2.4057 1.2026.3897-.3112-.2654-.8636-.4788-1.2026-.3897zm.143-1.4179c1.0581-.8518.5633.4788 0 0zm1.346.0235c.0964-1.344 3.0841.7123.4918.4838l-.4918-.4838zm1.8425-.7997c.6736-.85.196.7527 0 0zm.4715-.341c1.1202-1.4532 6.344-.929 2.5206-.1428-1.027-.8333-1.8095.4906-2.5206.1428zm6.8155-1.134c-.1682-3.9714 3.3891 1.4112 0 0zm1.934-.0117c.7082-2.016 2.7466-.8031.3112-.4032.0514.215-.0716 1.0348-.3112.4032zm-15.6119 10.6123c2.1131-1.3977-2.2407-1.2129 0 0zm1.564.467c.7407-.85-1.6122-.3444 0 0zm-4.5577-3.5128c1.2074-1.0029-1.4317-.3813 0 0zm62.3976 42.1435c.0358-1.1625-.9228.504 0 0zm-6.3409-4.6703c.1805-1.3372-.8154.1176 0 0zm8.0836 5.1239c1.6885.0068 5.1148-.5678 1.4425-.5661-.5756.0957-3.358.0773-1.4425.5661zm-58.1744-39.9058c1.3661-.1008 2.1363-1.6262-.2646-1.5388-3.7221-.415 3.2677 1.3775-.4778.8635-.5041.3612.7129.7761.7424.6753zm1.2027.6586c-.143-.9459-.4232.504 0 0zm1.4285-4.1092c.5914-.7946-.8216-.2117 0 0zm-4.5437-8.1982c2.4399-.8938 5.7574-1.8984 6.9244.4418-1.1717-1.5221-.473-3.0206.6333-.7946 1.5654 2.2511 2.3341-1.008 1.3305-1.7808 1.1609 1.5557 2.4788 2.2915.778.1008 1.8673-2.4023-3.7033.3142-4.9668.2856-.6225.294-6.2709 1.559-4.6994 1.7472zm1.4316-2.9534c1.3911-1.1323 4.8237.6753 2.6143-1.1256-.2149-.2049-4.8053 1.3675-2.6143 1.1256zm5.0727.2268c1.6261.0437-.7002-2.362 1.2371-1.2717-.3175-1.1223-2.2563-1.3323-3.2055-1.7808-.5369 1.008 1.0892 3.0659 1.9699 3.0525zm-4.1811-4.9693c.5633-.84-.9881.4199 0 0zm2.0726.5375c2.6235-.3746-.6689-1.2179-.529-.0302l.529.0302zm-3.8697-3.2675c-1.8472-2.6039 3.4745.4368 1.5965-2.2898-1.5795-1.3574-3.1123 1.512-1.5965 2.2898zm23.6985 13.7807c.8465-1.6194-3.4964-2.1839-.5695-.5711.2692.0957.2085.6854.5695.5711zm43.5805.4284c-.2911 1.2398-.4701 3.318-.5385 6.2159 0 .5712-.2397.8601-.7189.8601s-.8138-.252-1.0021-.7492c-.5135-1.349-.9989-2.2898-1.4626-2.8274-.5478-.6266-1.2761-1.008-2.1817-1.1357-.9755-.168-3.4046-.252-7.2885-.252-.8901 0-1.4721.1008-1.7427.3058-.1557.1294-.2569.4066-.2569.8316v12.5527c0 .425.2491.6266.7424.6098l6.6224-.3326c.5649-.0756.9461-.2722 1.1422-.5964s.389-1.176.5757-2.5082c.1198-.7392.5214-1.008 1.2059-.84.582.1294.831.415.7469.84-.4792 2.5132-.6348 5.7824-.4637 9.811.0189.4787-.2643.7391-.8464.7761-.4793.0554-.7781-.2218-.8977-.8316-.4435-2.3082-1.2715-3.5279-2.4897-3.7009s-3.1713-.2352-5.8914-.2352c-.3081 0-.4606.1176-.4606.3595v12.4703c0 .924.3159 1.5523.9337 1.8816.498.2772 1.5669.5275 3.2085.7493.8403.0924 1.206.4905 1.0893 1.1759-.1043.6099-.8559.8501-2.2594.7224-4.0551-.336-7.4006-.3326-10.0366.0555-.7358.1092-1.0892-.2134-1.0892-.9694 0-.4805.3674-.756 1.0892-.8316 1.6775-.2016 2.5146-1.7925 2.5146-4.766v-23.7211c0-1.218-.2021-2.1554-.602-2.8122s-1.1516-1.2533-2.2456-1.7875c-.6846-.3326-.9414-.7846-.7702-1.3574.0856-.3495.2227-.5443.4092-.5813.1557-.0554.6257-.0168 1.36.1109 1.0784.168 3.6211.2772 7.6247.2772l12.2463-.3327c1.1451-.0756 1.7194.0269 1.7194.3024 0 .0756-.0095.1479-.0266.2218zm16.6465 35.1784c0 .7392-.3843 1.0618-1.1546.9694-2.3605-.2403-5.2859-.2016-8.7761.1092-.7002.0756-1.1328.0554-1.2978-.0538s-.2426-.4149-.2426-.9156c0-.4418.4667-.8164 1.3972-1.1222s1.4005-1.2146 1.4005-2.7282v-25.0785c0-1.512-.2023-2.5956-.6022-3.2995s-1.1095-1.2465-2.1161-1.6329c-.5291-.2016-.7969-.4905-.7969-.8601 0-.5544.3846-.9694 1.1546-1.2465 1.164-.4066 2.3716-1.0332 3.621-1.885 1.027-.6652 1.6774-.9962 1.9497-.9962.6335 0 .9336.4704.9336 1.4112l-.1041 2.7719-.0499 5.4045.1013 24.7458c0 1.1256.2566 1.9454.7701 2.4527s1.3958.8451 2.6453 1.008c.7702.0924 1.1546.4066 1.1546.9408zm23.2163-1.6346c0 .3864-.6535.9744-1.9606 1.759s-2.3574 1.1759-3.1431 1.1759c-.6691 0-1.2573-.3494-1.7708-1.0533s-.8746-1.0517-1.0785-1.0517c-.1554 0-.9647.3797-2.4383 1.1357s-2.9518 1.1373-4.4393 1.1373c-1.4004 0-2.5752-.4452-3.5168-1.3439-1.027-.9795-1.5559-2.31-1.5559-3.9916 0-3.197 3.3891-5.4868 10.1655-6.8879 1.1624-.2402 1.7537-.7492 1.7693-1.5237l.0513-1.774c.1027-3.029-1.1358-4.5443-3.7221-4.5443-.736 0-1.4315.7106-2.0929 2.1335s-1.6027 2.189-2.8351 2.3016c-1.4004.1461-2.1053-.4906-2.1053-1.9152 0-.887 1.0425-1.9202 3.1323-3.1046 2.1911-1.2364 4.2949-1.8563 6.3145-1.8563 3.4731 0 5.1925 1.7841 5.1584 5.349l-.1044 11.4153c-.0155 1.2012.4544 1.8009 1.4115 1.8009.1866 0 .5492-.0453 1.0782-.1377l.9259-.1378c.4948 0 .7438.3612.7438 1.0819zm-7.9047-6.3166c.0155-.462-.0825-.7678-.3113-.9139s-.5508-.1764-1.0112-.084c-4.1237.7946-6.187 2.2461-6.187 4.3679s1.069 3.1869 3.2085 3.1869c.8559 0 1.7383-.1747 2.6455-.5259 1.0626-.4082 1.5917-.8971 1.5917-1.4699l.0513-4.5443zm26.985 3.1465c0 1.9589-.7002 3.5162-2.0927 4.6703s-3.2975 1.7136-5.7107 1.7136a21.478 21.478 0 0 1-4.8255-.5544c-1.4005-.3326-2.1909-.6384-2.4117-.9139-.137-.2604-.2056-1.5237-.2056-3.7967 0-.9794.2056-1.4868.6162-1.5237.411-.0555.778.168 1.0519.719 1.2837 2.4191 3.3548 3.6287 6.2118 3.6287 2.4118 0 3.6178-.9072 3.6178-2.7182 0-.7929-.2723-1.4582-.8216-1.9941-.5989-.6098-1.7613-1.3221-3.4902-2.1335-2.4991-1.2012-4.1671-2.2512-5.0057-3.1584-.9072-.9609-1.3601-2.2511-1.3601-3.8639 0-1.9958.7095-3.5279 2.1317-4.6535 1.3182-1.0718 3.081-1.6077 5.286-1.6077a18.46 18.46 0 0 1 3.7998.3595c1.2326.2403 1.8735.5343 1.9249.887.1355 1.0332.4201 2.5301.8466 4.4906.0514.2385-.1898.4334-.7189.5813-.565.1293-.9415.0268-1.1298-.3024-1.3507-2.3856-3.0623-3.575-5.135-3.575-2.3433 0-3.5167.8131-3.5167 2.4393 0 .9072.3176 1.6262.9338 2.1604.5647.462 1.8905 1.1844 3.9787 2.1638 2.1911 1.0164 3.6786 1.932 4.4658 2.7417 1.0272 1.0534 1.5563 2.4696 1.5563 4.2402zm30.1952 4.8484c0 .6468-.4046 1.008-1.2075 1.008l-4.6962.2772c-.9585.2016-1.6432.0756-2.0539-.3864-2.7045-3.1415-4.9981-6.4292-6.8778-9.8664-.1556-.294-.3501-.4435-.5913-.4435-.2908 0-.7779.2772-1.5125.8316-.806.4787-1.2075 1.1642-1.2075 2.0495l.0514 2.7182c.0342 1.181.3065 1.9571.82 2.3267.3579.2604 1.1904.462 2.4897.6099.8045.1108 1.2076.4367 1.2076.9693 0 .425-.0624.672-.1931.7896s-.4666.1243-1.0145.0672c-1.7117-.168-4.6028-.0739-8.675.2772-1.027.0924-1.5825-.0471-1.6681-.415-.0342-.1293-.0513-.3141-.0513-.5544 0-.5712.5228-1.0079 1.5669-1.3003.9416-.2604 1.4114-1.4514 1.4114-3.5749v-24.2217c0-1.512-.137-2.567-.4122-3.1583-.3766-.756-1.1641-1.349-2.3623-1.7741-.5633-.2016-.8465-.504-.8465-.84 0-.5375.4046-.9525 1.2061-1.2465 1.2931-.4707 2.5267-1.1141 3.6723-1.9151.9413-.6636 1.5249-.9979 1.7428-.9979.7033 0 1.0533.4787 1.0533 1.4414 0-.1311-.0092.7845-.0265 2.7417l-.0247 5.433.0512 17.3456c0 .4804.1198.719.3579.719.2569 0 .6505-.2386 1.1826-.719l5.2345-4.7106c.4124-.462.6162-.8316.6162-1.1088 0-.4973-.6924-.8501-2.0773-1.0517-.5991-.0756-.8823-.4368-.8481-1.0819.0514-.6468.3519-.924.8979-.8316 1.2339.168 3.0296.2856 5.3901.3058l4.9016.0269c.5292.0168.778.3595.778 1.008 0 .6266-.4201.9693-1.2573 1.0079-1.3195.0538-2.5597.3763-3.722.9694-1.6261.7929-3.3642 2.189-5.2127 4.1999-.1355.1109-.2055.252-.2055.4149 0 .2587.2911.8786.8745 1.8581 2.138 3.5279 4.1578 6.1604 6.0561 7.9529 1.2138 1.1256 2.3528 1.69 3.4125 1.69.7873 0 1.2759.0588 1.4627.1815s.2832.4368.2832.9542z" class="C"/><path d="M717.5453 518.0784c0 1.4899-1.1052 2.8191-2.5463 2.8191-1.105 0-2.0654.3195-2.8821 1.0108-.9126.6389-1.6333 1.5426-2.2094 2.553-1.1532 1.7022-1.7285 3.7228-1.9694 4.4669v10.1053c0 1.5426-1.2006 2.8191-2.6417 2.8191-1.4019-.0111-2.5361-1.2669-2.5462-2.8191v-20.9551c0-1.5425 1.1523-2.7656 2.5462-2.7656 1.4411 0 2.6417 1.2236 2.6417 2.7656v.3725c.288-.3725.669-.7975 1.0088-1.0639 1.5853-1.1696 3.6502-2.1277 6.0521-2.0742 1.4411 0 2.5463 1.2236 2.5463 2.7656zm-1.4126 10.4782c.0484-7.2331 5.1401-13.296 11.7201-13.296 6.2447 0 11.1883 5.1588 11.5767 12.3383v.2658c0 .1071 0 .3721-.0482.4787-.1487 1.2767-1.153 2.1277-2.4979 2.1277h-15.2716c.24 1.2235.7683 2.6061 1.6332 3.5107 1.0089 1.2766 2.9303 2.233 4.6111 2.3926 1.7292.1594 3.7914-.3189 4.9957-1.3293 1.0085-1.1704 2.9781-1.0104 3.6026-.1646.6246.7409 1.1049 2.341 0 3.457-2.3539 2.3928-5.1879 3.5107-8.5986 3.5107-6.5801-.0524-11.6718-6.0622-11.7201-13.2953zm5.236-2.606h13.5934c-.4803-2.1278-2.9302-5.265-7.1093-5.6373-4.0826.2123-6.096 3.457-6.4844 5.6373zm42.536 13.0306c0 1.5425-1.153 2.8727-2.5945 2.8727-1.301 0-2.3053-1.0104-2.5462-2.287-1.8213 1.3828-4.1308 2.287-6.5328 2.287-6.4844 0-11.6723-6.063-11.6723-13.2429 0-7.2866 5.1879-13.3497 11.6723-13.3497 2.3541 0 4.6594.8508 6.4366 2.2336v-9.9982c0-1.5426 1.153-2.8728 2.6416-2.8728 1.4411 0 2.5946 1.3295 2.5946 2.8728v31.485zm-11.6723-17.9231c-1.7292 0-3.3145.7975-4.5149 2.1804-1.2006 1.3293-1.9218 3.2438-1.9218 5.3716 0 2.0165.7205 3.9353 1.9218 5.265 1.2006 1.3829 2.7857 2.1812 4.5149 2.1812 1.7767 0 3.3144-.7976 4.515-2.1812 1.2008-1.3293 1.9217-3.2442 1.9217-5.265 0-2.1278-.7203-4.0415-1.9217-5.3716-1.2006-1.3829-2.738-2.1804-4.515-2.1804zm20.8126-12.4454c0 1.5956-1.1047 2.9249-2.5946 2.9249-1.441 0-2.5936-1.3293-2.5936-2.9249v-1.117c-.003-.7626.2694-1.495.7564-2.0344s1.1486-.8407 1.8372-.8378c1.4896 0 2.5946 1.2766 2.5946 2.8726zm0 9.6303v20.7425c0 1.5954-1.1047 2.8725-2.5946 2.8725-.6886.0032-1.3501-.2986-1.8372-.838s-.7594-1.2715-.7564-2.0342v-20.7424c0-1.7016 1.1521-2.9253 2.5936-2.9253 1.4899 0 2.5946 1.2237 2.5946 2.9253zm3.3007 16.0012c.8647-1.2758 2.5462-1.4354 3.6026-.425 1.2491 1.1704 3.4109 2.3926 5.2838 2.3401 1.3011 0 2.498-.4783 3.2667-1.0104.669-.638.8642-1.1697.8642-1.5957 0-.2658-.0483-.3719-.1439-.5321-.0482-.1592-.24-.3719-.6244-.6379-.669-.5321-2.1135-1.1173-3.8427-1.4898h-.0484c-1.4894-.3189-2.9304-.7408-4.1791-1.3828-1.301-.6914-2.4533-1.6483-3.3144-3.0841-.5279-.9574-.8164-2.1278-.8164-3.3502 0-2.4466 1.249-4.5209 2.834-5.8505 1.6812-1.2759 3.6985-1.9672 5.9086-1.9672 3.3142 0 5.6678 1.7552 7.2052 2.9249 1.1531.851 1.4891 2.6062.7684 3.9351-.7684 1.2768-2.3537 1.6491-3.5543.7409-1.5371-1.1165-2.8823-1.9681-4.4234-1.9681-1.2006 0-2.2576.4256-2.8822.9574-.6245.479-.7683.9577-.7683 1.2234 0 .2124 0 .2658.0959.4251.0483.1063.1921.319.5285.5317.6245.4787 1.8735.9574 3.5067 1.2768l.0483.0534h.0485c1.5853.3185 3.0739.7976 4.4671 1.5422 1.301.6377 2.5944 1.6485 3.4108 3.1376.5761 1.0635.9124 2.287.9124 3.5105 0 2.6061-1.3008 4.7865-3.0263 6.1734-1.7293 1.3292-3.8911 2.1277-6.2446 2.1277-3.747-.0535-6.6288-1.9672-8.5502-3.6694-1.0571-.9573-1.2006-2.7656-.3367-3.936z" fill="#636466"/><path d="M685.255 545.7635c-3.3743 1.9475-20.855 9.9053-24.5766 12.0532s-5.7889 2.1278-8.7288.5762-21.5424-9.8756-24.8932-11.649c-1.675-.8865-2.5556-1.6339-2.5556-2.3409v-7.0803s24.2178-5.8376 28.1279-7.3904 5.266-1.605 8.5932-.2592 23.222 5.3238 26.5102 6.6572l-.0015 6.9758c.0003.6998-.7582 1.4672-2.4756 2.4583z" class="M"/><path d="M685.255 538.6849c-3.3743 1.9466-20.8551 9.9053-24.5766 12.053s-5.789 2.1278-8.7288.5763-21.5424-9.8764-24.8934-11.6489-3.4212-2.9942-.1292-4.4209l25.702-11.0174c3.9097-1.5524 5.2661-1.6051 8.5932-.2593s20.7041 9.0073 23.9919 10.3407 3.4152 2.4336.0372 4.381z" class="N"/><path d="M685.255 534.2236c-3.3743 1.9474-20.855 9.9053-24.5766 12.0585s-5.7889 2.127-8.7288.5709-21.5424-9.8758-24.8932-11.649c-1.675-.8866-2.5556-1.6339-2.5556-2.3401v-7.0813s24.2178-5.837 28.1279-7.3903 5.266-1.6049 8.5932-.2591 23.222 5.3229 26.5102 6.6568l-.0015 6.977c.0003.6997-.7582 1.4668-2.4756 2.4577z" class="M"/><path d="M685.255 527.1448c-3.3743 1.9475-20.8551 9.9054-24.5766 12.0586s-5.789 2.1268-8.7288.5707-21.5424-9.8759-24.8934-11.649-3.4212-2.9935-.1292-4.4212l25.702-11.0165c3.9097-1.5527 5.2661-1.605 8.5932-.2592s20.7041 9.0067 23.9919 10.3406 3.4152 2.4335.0372 4.381z" class="N"/><path d="M685.255 522.2556c-3.3743 1.9476-20.855 9.9062-24.5766 12.0584s-5.7889 2.1271-8.7288.571-21.5424-9.8761-24.8932-11.649c-1.675-.8865-2.5556-1.6339-2.5556-2.3401v-7.0854s24.2178-5.837 28.1279-7.3898 5.266-1.605 8.5932-.2592 23.222 5.3229 26.5102 6.6568l-.0015 6.9766c.0003.6988-.7582 1.4665-2.4756 2.457z" class="M"/><path d="M685.255 515.1769c-3.3743 1.9475-20.8551 9.9062-24.5766 12.0584s-5.789 2.127-8.7288.5713-21.5424-9.8759-24.8934-11.649-3.4212-2.9941-.1292-4.4212l25.702-11.0165c3.9097-1.5533 5.2661-1.605 8.5932-.2592s20.7041 9.0067 23.9919 10.3406 3.4152 2.4331.0372 4.3801z" class="N"/><path d="M655.7154 508.6126l-6.3265-.6295 4.7207-1.885-1.4124-2.8932 4.4233 1.9137 4.163-1.5104-1.1262 2.9919 4.2485 1.7616-5.4789.6296-1.2266 3.2679zm-8.5716 10.9062l14.6527-2.4898-4.4232 7.1858zm-11.7828-5.9797c0-1.8622 3.4928-3.3613 7.8315-3.3613s7.8315 1.4991 7.8315 3.3613-3.4928 3.361-7.8315 3.361-7.8315-1.4991-7.8315-3.361z"/><path d="M679.5493 513.0491l-8.6608 3.7863v-7.5848z" fill="#7a0c00"/><path d="M670.8811 509.2547v7.585l-.9404.4115-8.6608-3.7863z" fill="#ad2115"/></g><use xlink:href="#B" fill="none" class="E F G O"/><g class="D"><use xlink:href="#C" class="B K"/><use xlink:href="#D" fill="#17b5eb"/><path d="M327.3897 361.2101h6.0625v8.895h-6.0625z" class="B J"/></g><use xlink:href="#E" class="B C E F G H"/><use xlink:href="#F" class="B D I"/><use xlink:href="#G" class="B C E F G H"/><g class="D B"><path d="M313.3999 371.4687h6.0625v8.8945h-6.0625z" class="I"/><path d="M313.3999 381.7361h6.0625v8.895h-6.0625z" class="J"/></g><g class="C E F G H B"><use xlink:href="#E" x="-13.99" y="10.263"/><use xlink:href="#E" x="-13.99" y="20.526"/></g><g class="D B"><use xlink:href="#F" x="13.9897" class="I"/><path d="M320.3948 380.3683h6.0625v-8.895h-6.0625z" class="J"/></g><g class="C E F G H B"><use xlink:href="#H"/><use xlink:href="#I"/></g><g class="D B"><path d="M327.3897 371.4687h6.0625v8.8945h-6.0625z" class="I"/><path d="M327.3897 381.7361h6.0625v8.895h-6.0625z" class="J"/></g><g class="C E F G H B"><use xlink:href="#E" y="10.263"/><use xlink:href="#E" y="20.526"/></g><use xlink:href="#F" x="27.9796" class="B D I"/><use xlink:href="#H" x="13.9897" class="B C E F G H"/><g class="D"><use xlink:href="#J" class="B L"/><path d="M319.5157 405.868c-.1903.1633-.2826.4931-.2256.8055s.2493.5305.4697.5325c.1851 0 .3457-.1508.4289-.3734.0588.2074.0912.4353.0912.6741 0 .9704-.5363 1.7572-1.198 1.7572s-1.1979-.7868-1.1979-1.7572.5365-1.7571 1.1979-1.7581c.1484-.0002.2955.0402.4338.1189zM289.5 399.9676h77.8007c-1.6941-.6305-5.3595-1.482-4.7553-4.7396-3.0805 5.2297-10.5089 3.6688-12.3832 1.0906-2.0878 4.4426-14.2415 2.7541-15.0892-.7069-2.6174 4.5063-10.7273 4.5063-13.3446 0-.848 3.456-13.0011 5.1495-15.0896.7069-1.8746 2.579-9.2996 4.1396-12.3831-1.0906.6044 3.2576-3.061 4.1095-4.7557 4.7396" class="B K"/><use xlink:href="#K" fill-opacity=".17" class="C"/><use xlink:href="#L" class="L"/><use xlink:href="#M" fill-opacity=".14" class="C"/></g><path d="M303.457 412.0268c4.3332.3479 8.9576.4103 12.9919-1.4452" fill="none" class="E F P"/><path d="M466.0495 277.5847v-16.7551l9.6998 3.8962v16.9634zm21.177 0v-16.7551l-9.6998 3.8962v16.9634zm-10.3651-21.2668l9.102 3.4586-9.102 3.6424-9.8027-3.845zM454.5 254.1776v-16.7778l9.6998 3.8943v16.9634zm21.1802-.0019v-16.7759l-9.6998 3.8943v16.9634zm-10.3651-21.2705l9.102 3.4605-9.102 3.6423-9.8027-3.845zm11.8194 21.2705v-16.7759l9.6999 3.8943v16.9634zm21.177 0v-16.7759l-9.6998 3.8943v16.9634zm-10.349-21.2705l9.102 3.4605-9.102 3.6423-9.8027-3.845zm.736-2.1403v-16.757l9.6998 3.8961v16.9616zm21.1641-.0019v-16.7551l-9.6998 3.8961v16.9616zM499.4959 209.5l9.102 3.4586-9.102 3.6423-9.8027-3.845zm11.8195 21.2649v-16.757l9.6998 3.8961v16.9616zm21.1609 0v-16.757l-9.6998 3.8961v16.9616zM522.1272 209.5l9.1021 3.4586-9.1021 3.6423-9.8026-3.845z" fill="#f90" class="D"/><g class="C"><path d="M516.0817 270.7698l-3.259 13.3419h-1.4142l-2.5711-9.9098-2.327 9.9098h-1.4431l-3.3859-13.3419h1.7677l2.4667 9.9439 2.3463-9.9439h1.292l2.5519 9.9742 2.5358-9.9742h1.4222zm9.012 9.3606l1.6392.3788c-.301 1.1448-.9146 2.1403-1.7452 2.8316-.8678.7482-1.8834 1.1213-3.0533 1.1213-1.5427 0-2.793-.6402-3.7475-1.9244s-1.4463-2.9642-1.4463-5.0439c0-2.1252.4821-3.8412 1.488-5.1519.9335-1.2804 2.3043-2.0009 3.7363-1.9642 1.4784 0 2.6644.6023 3.5643 1.8089s1.3595 3.0078 1.382 5.4095h-8.2165c0 2.0172.3567 3.379 1.0734 4.0836s1.4721 1.0569 2.2691 1.0569c1.4383 0 2.4523-.8751 3.0405-2.6271zm-.0964-4.061c-.0161-.7481-.1189-1.4129-.3134-1.9944s-.5222-1.0759-.985-1.485-1.0173-.6137-1.6665-.6137c-.8395-.0161-1.6457.3872-2.2193 1.11-.6074.7576-.9642 1.733-1.0236 2.9831h6.2062zm5.0942 8.0423h-.8469v-17.9938h1.7629v6.8945c.8035-1.7293 1.9284-2.5949 3.3313-2.5949 1.2952 0 2.3816.6061 3.2574 1.8126s1.3129 2.9624 1.3129 5.2618c0 1.9831-.4339 3.6461-1.292 4.9909s-1.9831 2.0172-3.3619 2.0172c-1.5363 0-2.7319-.8599-3.5354-2.5759l-.6428 2.2066zm.916-5.2277c.0803 1.3695.4387 2.3639 1.0686 2.9813s1.2969.9471 1.9991.9471c.8951 0 1.6167-.4584 2.1663-1.3751s.8227-2.1725.8227-3.7655c0-1.7179-.2651-3.0684-.7938-4.0533s-1.2647-1.4736-2.2048-1.4736c-.7392 0-1.4045.3504-1.9991 1.0493s-.9642 1.6043-1.0574 2.7123v2.9738zm12.3947 1.7691l1.681-.4091c.3728 1.6763 1.5555 2.5134 3.5418 2.5134.7312 0 1.3531-.1931 1.8609-.5795.4877-.3408.78-.9668.7633-1.6346 0-1.0418-.6476-1.7047-1.9412-1.9888l-2.3832-.5342c-.9321-.2121-1.6761-.625-2.2289-1.2425s-.8276-1.43-.8276-2.4623c0-1.1364.376-2.0532 1.1313-2.807s1.7677-1.1289 3.0453-1.1289c2.4554 0 3.9692 1.1308 4.5478 3.3942l-1.6135.4091c-.4628-1.3826-1.4141-2.0778-2.8524-2.0778-.7167 0-1.3049.1894-1.7629.519-.4371.2991-.7008.8554-.6878 1.4509 0 .9811.5866 1.5967 1.7581 1.8524l2.2016.4773c2.3076.4925 3.4598 1.8126 3.4598 3.9548.0206 1.1821-.4636 2.2976-1.2888 2.97-.8581.7538-2.0007 1.1326-3.4293 1.1326-2.6837 0-4.3389-1.2766-4.9753-3.826zm19.0687-.5227l1.6391.3788c-.2973 1.1402-.879 2.0835-1.7452 2.8316s-1.8834 1.1213-3.0533 1.1213c-1.5427 0-2.793-.6402-3.7475-1.9244s-1.4463-2.9642-1.4463-5.0439c0-2.1252.495-3.8412 1.4881-5.1519.9335-1.2804 2.3042-2.0009 3.7362-1.9642 1.4753 0 2.6644.6023 3.5628 1.8089s1.3595 3.0078 1.382 5.4095h-8.215c0 2.0172.3568 3.379 1.0719 4.0836s1.472 1.0569 2.2707 1.0569c1.4382 0 2.4522-.8751 3.0404-2.6271zm-.0965-4.061c-.016-.7481-.1205-1.4129-.3133-1.9944s-.5207-1.0759-.9835-1.485-1.0172-.6137-1.6665-.6137c-.8401-.0165-1.6468.3868-2.2208 1.11-.6075.7576-.9642 1.733-1.0221 2.9831h6.2062zm5.5876 8.0423h-1.7629v-13.3419h1.5427v3.1101c.5464-1.4585 1.0928-2.4017 1.6391-2.8317s1.1249-.6477 1.6842-.6477c.2319.0037.4636.0202.6942.0492v1.9812h-.3568c-.969 0-1.7741.4243-2.4153 1.2728s-.9834 1.9642-1.0284 3.345v7.0649zm14.7522-13.3419l-3.9082 13.3419h-1.8272l-4.0384-13.3419h1.9509l3.1417 10.8436 3.1176-10.8436h1.5636zm3.2943-4.6746v2.3051h-1.8834v-2.3051h1.8867zm-.0417 4.6727v13.3419h-1.7452v-13.3419h1.7628zm9.2145 8.6711l1.5861.3296c-.225 1.4736-.72 2.6271-1.4881 3.4624s-1.7275 1.2501-2.8926 1.2501c-1.5588 0-2.7319-.6819-3.5675-2.0362s-1.2262-3.0305-1.2262-4.9719c0-2.0267.4307-3.7124 1.2937-5.0572s2.036-2.0172 3.5354-2.0172c1.2309 0 2.2176.4356 2.9617 1.3258s1.2052 1.9888 1.382 3.3677l-1.5861.3561c-.2989-2.2028-1.2005-3.3033-2.7078-3.3033-.9167-.0364-1.7759.5241-2.237 1.4584-.5222.9717-.7842 2.2313-.7842 3.7806 0 1.7047.2571 3.0306.7778 3.9776.4561.9063 1.2935 1.4495 2.1871 1.4187 1.4544 0 2.3752-1.1062 2.7641-3.3204zm11.5318.6914l1.6391.3788c-.301 1.1448-.9145 2.1403-1.7452 2.8316-.8678.7482-1.8834 1.1213-3.0533 1.1213-1.5427 0-2.7961-.6402-3.7491-1.9244s-1.4463-2.9642-1.4463-5.0439c0-2.1252.4821-3.8412 1.4881-5.1519.9337-1.2804 2.3043-2.0009 3.7363-1.9642 1.4784 0 2.6676.6023 3.5643 1.8089s1.3595 3.0078 1.382 5.4095h-8.215c0 2.0172.3568 3.379 1.0735 4.0836s1.472 1.0569 2.2691 1.0569c1.4382 0 2.4523-.8751 3.0404-2.6271zm-.0964-4.061c-.0161-.7481-.119-1.4129-.3134-1.9944-.2022-.5946-.5432-1.1094-.9835-1.485-.4628-.4091-1.0172-.6137-1.6664-.6137-.8394-.0178-1.6456.3857-2.2177 1.11-.6042.7576-.9642 1.733-1.0236 2.9831h6.2062zm2.9247 4.5837l1.6809-.4091c.3728 1.6763 1.554 2.5134 3.5418 2.5134.7312 0 1.3499-.1931 1.8609-.5795.4871-.3412.7788-.9672.7618-1.6346 0-1.0418-.6477-1.7047-1.9397-1.9888l-2.3832-.5342c-.932-.2121-1.6761-.625-2.2289-1.2425s-.8276-1.43-.8276-2.4623c0-1.1364.3761-2.0532 1.1314-2.807s1.7676-1.1289 3.0452-1.1289c2.4555 0 3.9693 1.1308 4.5478 3.3942l-1.6134.4091c-.4628-1.3826-1.4142-2.0778-2.8524-2.0778-.7168 0-1.2856.1894-1.7629.519-.4371.2991-.7008.8554-.6878 1.4509 0 .9811.5866 1.5967 1.7581 1.8524l2.2015.4773c2.3077.4925 3.4599 1.8126 3.4599 3.9548.0204 1.1821-.4636 2.2976-1.2888 2.97-.8581.7538-2.0007 1.1326-3.4293 1.1326-2.6805 0-4.3389-1.2766-4.9737-3.826z" stroke-width=".213" class="B"/><path d="M569.7908 242.2563v-3.2048c-.0045-.2176.067-.4279.1975-.5817s.3088-.2381.4935-.2328h12.1858c.3889 0 .7023.3334.7039.8088v2.7464c-.0032.4603-.3327 1.0607-.916 2.0172l-6.3107 10.622c2.343-.0644 4.821.3486 6.9503 1.7615.4821.3182.6074.788.646 1.2501v3.4189c0 .4735-.4371 1.0171-.8967.733-3.7507-2.3165-8.726-2.5703-12.8753.0265-.4242.2652-.8677-.2709-.8677-.7425v-3.2502c0-.5209.008-1.4092.4531-2.2029l7.3119-12.3683h-6.3686c-.1856.0098-.3665-.0709-.5-.2231s-.2078-.363-.2054-.5819zm-43.6091 20.0166h-3.7073c-.3536-.0265-.6348-.3409-.6621-.7576l.0016-22.4259c0-.4489.3214-.8069.7151-.8069l3.4518-.0019c.3616.0227.6509.3447.675.7538v2.9283h.0691c.8999-2.8317 2.5953-4.1537 4.8788-4.1537 2.3189 0 3.7716 1.322 4.8114 4.1537.8999-2.8317 2.9408-4.1537 5.1215-4.1537 1.5587 0 3.2525.7576 4.2906 2.4547 1.1764 1.8865.9353 4.6254.9353 7.0327l-.0032 14.1526c0 .4489-.3214.8069-.7151.8069h-3.7009c-.3696-.0284-.6653-.375-.6653-.805v-11.8721c0-.947.0691-3.3033-.1045-4.2011-.2764-1.5096-1.1249-1.9357-2.1791-1.9357-.8999 0-1.8352.7084-2.2176 1.841s-.3455 3.0211-.3455 4.2958v11.8873c0 .4489-.3214.8068-.7151.8068h-3.7042c-.3728-.0284-.6653-.375-.6653-.8049l-.0032-11.8892c0-2.5002.3455-6.1823-2.2819-6.1823-2.6644 0-2.5616 3.5855-2.5616 6.1823v11.8873c0 .4489-.3214.8068-.7151.8068zm66.144-24.4469c5.4589 0 8.411 5.5686 8.411 12.6487 0 6.8433-3.2622 12.2699-8.411 12.2699-5.3561 0-8.276-5.5686-8.276-12.5067 0-6.9834 2.9536-12.4119 8.276-12.4119zm.0353 5.1557c-2.7126 0-2.8845 4.3886-2.8845 7.1256s-.0322 8.0119 2.8508 8.0119c2.8508 0 2.989-4.1423 2.989-7.0213 0-1.8865-.0675-4.1538-.5464-5.9475-.413-1.5569-1.2374-2.1706-2.404-2.1706zm16.2757 19.2912h-3.6929c-.3696-.0284-.6653-.375-.6653-.8049l-.0064-22.4354c.0321-.4111.3214-.7312.7119-.7312l3.439-.0019c.3137.0141.582.2701.6588.6289v3.4093h.0707c1.0382-3.0684 2.4909-4.5306 5.0524-4.5306 1.6601 0 3.288.7084 4.3261 2.6422.969 1.7937.969 4.811.969 6.9854v14.1109c-.0418.3788-.3439.7065-.7103.7065h-3.717c-.3423-.0265-.6187-.322-.6428-.7065v-12.1789c0-2.4529.2411-6.0611-2.3189-6.0611-.8999 0-1.7307.7084-2.1453 1.7937-.5191 1.3694-.5898 2.7369-.5898 4.2484v12.0767c-.0064.4489-.3262.8069-.7231.8069zm-48.1376-10.711c0 1.7047.0354 3.1215-.6942 4.6348-.5898 1.2312-1.5267 1.9888-2.5664 1.9888-1.4222 0-2.2546-1.2766-2.2546-3.1688 0-3.72 2.8331-4.398 5.512-4.398v.947zm3.7379 10.6542c-.2459.2595-.5994.2766-.8758.1023-1.231-1.2065-1.4511-1.7615-2.1245-2.9131-2.0344 2.4623-3.4759 3.1764-6.1114 3.1764-3.1208 0-5.5489-2.2729-5.5489-6.8111 0-3.5477 1.6295-5.9588 3.9532-7.1407 2.0119-1.0418 4.821-1.2312 6.9711-1.5153v-.5682c0-1.0418.0691-2.2691-.4499-3.1688-.45-.805-1.3178-1.1365-2.0811-1.1365-1.4142 0-2.6708.8524-2.981 2.6252-.0643.394-.3085.7823-.6428.8031l-3.5932-.4584c-.3214-.0814-.6428-.3674-.5528-.9129.826-5.1386 4.7631-6.6899 8.2921-6.6899 1.803 0 4.1782.5682 5.5827 2.1782 1.8046 1.9888 1.6295 4.6348 1.6295 7.5195v6.8073c0 2.0456.7231 2.9453 1.3981 4.0496.2362.3788.2892.8713-.0129 1.1611l-2.8444 2.9017-.0096-.0114zm-51.9172-10.6542c0 1.7047.0353 3.1215-.6943 4.6348-.5897 1.2312-1.5266 1.9888-2.5663 1.9888-1.4222 0-2.2547-1.2766-2.2547-3.1688 0-3.72 2.8316-4.398 5.512-4.398v.947zm3.7378 10.6542c-.2458.2595-.5994.2766-.8758.1023-1.2309-1.2065-1.4527-1.7615-2.1244-2.9131-2.0345 2.4623-3.476 3.1764-6.1114 3.1764-3.1208 0-5.549-2.2729-5.549-6.8111 0-3.5477 1.6295-5.9588 3.9532-7.1407 2.012-1.0418 4.821-1.2312 6.9712-1.5153v-.5682c0-1.0418.0691-2.2691-.45-3.1688-.45-.805-1.3177-1.1365-2.0811-1.1365-1.4141 0-2.6708.8524-2.9809 2.6252-.0643.394-.3214.7823-.6428.8031l-3.5933-.4584c-.3214-.0814-.6428-.3674-.5528-.9129.8244-5.1386 4.7615-6.6899 8.2921-6.6899 1.8031 0 4.1782.5682 5.5843 2.1782 1.8031 1.9888 1.6295 4.6348 1.6295 7.5195v6.8073c0 2.0456.7232 2.9453 1.3981 4.0496.2362.3788.2893.8713-.0112 1.1611l-2.8284 2.9017-.0096-.0114z" class="D"/></g><use xlink:href="#B" x="330" fill="none" class="E F G O"/><g class="D"><use xlink:href="#C" x="330" class="B K"/><use xlink:href="#D" x="330" fill="#17b5eb"/><path d="M657.3897 361.2101h6.0625v8.895h-6.0625z" class="B J"/></g><use xlink:href="#E" x="330" class="B C E F G H"/><use xlink:href="#F" x="330" class="B D I"/><use xlink:href="#G" x="330" class="B C E F G H"/><g class="D B"><path d="M643.3999 371.4687h6.0625v8.8945h-6.0625z" class="I"/><path d="M643.3999 381.7361h6.0625v8.895h-6.0625z" class="J"/></g><g class="C E F G H B"><use xlink:href="#E" x="316.01" y="10.263"/><use xlink:href="#E" x="316.01" y="20.526"/></g><g class="D B"><use xlink:href="#F" x="343.9897" class="I"/><path d="M650.3948 380.3683h6.0625v-8.895h-6.0625z" class="J"/></g><g class="C E F G H B"><use xlink:href="#H" x="330"/><use xlink:href="#I" x="330"/></g><g class="D B"><path d="M657.3897 371.4687h6.0625v8.8945h-6.0625z" class="I"/><path d="M657.3897 381.7361h6.0625v8.895h-6.0625z" class="J"/></g><g class="C E F G H B"><use xlink:href="#E" x="330" y="10.263"/><use xlink:href="#E" x="330" y="20.526"/></g><use xlink:href="#F" x="357.9796" class="B D I"/><use xlink:href="#H" x="343.9897" class="B C E F G H"/><g class="D"><use xlink:href="#J" x="330" class="B L"/><path d="M649.5157 405.868c-.1903.1633-.2826.4931-.2256.8055s.2493.5305.4697.5325c.1851 0 .3457-.1508.4289-.3734.0588.2074.0912.4353.0912.6741 0 .9704-.5363 1.7572-1.198 1.7572s-1.1979-.7868-1.1979-1.7572.5365-1.7571 1.1979-1.7581c.1484-.0002.2955.0402.4338.1189zM619.5 399.9676h77.8007c-1.6941-.6305-5.3595-1.482-4.7553-4.7396-3.0805 5.2297-10.5089 3.6688-12.3832 1.0906-2.0878 4.4426-14.2415 2.7541-15.0892-.7069-2.6174 4.5063-10.7273 4.5063-13.3446 0-.848 3.456-13.0011 5.1495-15.0896.7069-1.8746 2.579-9.2996 4.1396-12.3831-1.0906.6044 3.2576-3.061 4.1095-4.7557 4.7396" class="B K"/><use xlink:href="#K" x="330" fill-opacity=".17" class="C"/><use xlink:href="#L" x="330" class="L"/><use xlink:href="#M" x="330" fill-opacity=".14" class="C"/></g><g fill="none"><path d="M633.457 412.0268c4.3332.3479 8.9576.4103 12.9919-1.4452" class="E F P"/><path d="M399.5 429.5v60m330-60v60m-185-175l-110 40m110-40l105 40"/></g><defs ><path id="B" d="M432.6098 410.3259l-.0128-11.4713-.0388-20.4923m7.9089 8.8307l-7.8701 11.6608 7.9089 11.5089m-52.7223-11.3555c.0379-2.4596-.4497-4.973-1.4369-7.0081-1.4225-2.9308-3.7259-4.9371-6.2521-4.9757l-.5048.0188c-.9988.0908-1.966.294-2.822.8169-5.6287 3.4363-6.626 14.9049-1.877 20.0943 4.1129 4.4883 10.0955 2.6588 12.1675-4.1966.4374-1.4489.725-3.2751.725-4.7487v-20.7392m37.979 10.1225c-1.1624-1.105-2.5252-1.5035-3.8703-1.5004-.1459 0-.2958.0107-.427.0188-3.889.2456-7.4948 4.2774-7.4948 12.0979 0 9.246 6.7569 14.2361 11.8081 9.8756m22.6785-1.0067l11.9476-15.0224s-.2907-.8066-.4791-1.1773c-1.6082-3.1669-4.0686-4.7487-6.6535-4.7487-6.3935 0-11.1908 12.1351-4.815 20.9484.4414.6105 1.0477 1.0885 1.7217 1.5005 2.3392 1.4308 5.5421 1.3138 7.2744-.57m-56.593-21.8416c-.1814.0045-.3616.0332-.5436.0382-4.8502.1346-8.347 7.5224-7.2876 14.377 1.0324 6.68 6.0062 10.6355 10.3036 8.4515 5.0046-1.93 7.045-11.176 4.2974-17.4156-1.503-3.4111-4.0503-5.5265-6.7698-5.4507zm73.6401.228c-1.964.0076-3.8768 1.0171-5.2944 2.9623-2.2356 2.7064-2.7207 6.1252-2.692 10.4457l.0648 9.8191"/><path id="C" d="M334.6178 380.026h6.9949v10.4914h3.5369c1.6336 0 3.313-.4263 4.86-1.1956.7599-.3779 1.613-.9044 2.3628-1.5709-.9875-1.8914-1.4916-4.2801-1.6396-6.6338-.2019-3.202.2386-7.3699 1.713-9.8761l.7354-1.2477.8762 1.0332c2.2025 2.6005 4.0612 6.2387 4.3882 10.3761 2.6562-1.1463 5.775-.8753 8.1158 1.1072l.9605.8133-.5057 1.448c-1.9774 5.6745-6.1172 7.4308-10.1644 7.1198-6.0557 22.1274-19.2407 32.6091-35.2271 32.6091-8.2596 0-15.8369-4.5301-20.152-15.2815-.253-.6679-.4696-1.3662-.6994-2.052-1.4585-4.7325-1.9431-9.917-1.6145-15.0974l.0985-1.5517h5.9817V380.026h6.9949v-10.263h13.9898V359.5h8.3941v20.526"/><path id="D" d="M365.9809 383.9732c-1.8089 5.1857-5.7695 6.7389-9.8983 6.1176-5.8193 22.6238-18.9687 32.6948-34.4623 32.6948-6.9962 0-13.0562-3.2317-17.1209-9.93-.2397-.4961-.3769-.9081-.7556-1.6552-.3604-.7114-.7103-1.4392-1.0069-2.2108l-.0447-.1178-.5164-1.3599c-1.5378-4.4353-2.2066-9.623-1.8519-15.2844h44.8253c3.6829 0 7.2794-2.0161 8.9864-4.2406-3.0584-3.6486-2.7556-12.3154-.8061-15.6225 1.6917 1.9941 4.4195 6.1954 3.9471 11.5463 2.13-1.5747 5.8248-2.3552 8.7043.0625z"/><path id="E" d="M328.1338 369.364v-7.4134m.9092 7.4129v-7.4129m.9183 7.4129v-7.4129m.9186 7.4129v-7.4129m.9187 7.4129v-7.4129m.9086 7.4129v-7.4129"/><path id="F" d="M306.4051 390.6359h6.0625v-8.8945h-6.0625z"/><path id="G" d="M307.149 382.4774v7.4134m.9092-7.4129v7.4129m.9183-7.4129v7.4129m.9186-7.4129v7.4129m.9187-7.4129v7.4129m.9085-7.4129v7.4129"/><path id="H" d="M321.1389 382.4774v7.4134m.9092-7.4129v7.4129m.9183-7.4129v7.4129m.9186-7.4129v7.4129m.9187-7.4129v7.4129m.9086-7.4129v7.4129"/><path id="I" d="M321.1389 372.2144v7.4134m.9092-7.413v7.413m.9183-7.413v7.413m.9186-7.413v7.413m.9187-7.413v7.413m.9086-7.413v7.413"/><path id="J" d="M320.7546 407.5072c-.0005 1.3549-.749 2.453-1.6724 2.4537s-1.6722-1.0987-1.6727-2.4537.7491-2.4538 1.6727-2.4542 1.6721 1.0991 1.6724 2.4542z"/><path id="K" d="M302.7369 408.9896l-.0447-.1178-.5164-1.3599c-.8574-2.473-1.4447-5.1798-1.7355-8.0657h52.54c-6.7211 16.0672-18.1941 23.3394-31.36 23.3394-6.9962 0-13.0563-3.2317-17.1209-9.93-.2397-.4961-.3769-.9081-.7556-1.6552-.3604-.7114-.7103-1.4392-1.0069-2.2108z"/><path id="L" d="M323.5284 422.7406c-4.142-2.884-6.4155-6.8045-7.6805-11.0836l-11.5561.7396c.0662.1534.1318.302.2076.4589 4.0647 6.6983 10.1248 9.93 17.121 9.93.637 0 1.2702-.017 1.899-.0512l.0708-.004"/><path id="M" d="M357.5645 383.7055c2.1624-1.4315 5.6621-2.0441 8.4125.2842-1.8049 5.1691-5.7655 6.7223-9.8943 6.101-5.8193 22.6239-18.9687 32.6948-34.4623 32.6948-6.9962 0-13.0563-3.2317-17.1209-9.93-.2397-.4961-.3769-.908-.7556-1.6552-.3604-.7113-.7103-1.4392-1.0069-2.2108l-.0447-.1177-.5164-1.36c-1.5378-4.4353-2.2066-9.623-1.8517-15.288h2.655c-.1829 8.6389 1.9942 15.1954 5.8601 19.1595.5579.4937 1.1147 1.016 1.6825 1.4866 5.2728 3.9675 12.9154 3.9444 21.6812-.9966 9.8267-5.5384 18.9803-16.0772 25.3725-28.1751l-.011.0243"/></defs></svg>